<svg width="480" height="270" viewBox="0 0 480 270" fill="none" xmlns="http://www.w3.org/2000/svg">
<rect width="480" height="270" fill="white"/>
<path d="M53 200.375C52.0208 200.375 51.125 200.188 50.3125 199.812C49.5208 199.437 48.8333 198.906 48.25 198.219C47.6875 197.51 47.25 196.656 46.9375 195.656C46.625 194.656 46.4688 193.521 46.4688 192.25C46.4688 190.979 46.6563 189.844 47.0313 188.844C47.4063 187.844 47.8958 187 48.5 186.312C49.125 185.604 49.8333 185.062 50.625 184.687C51.4167 184.312 52.2396 184.125 53.0938 184.125C53.9688 184.125 54.7083 184.271 55.3125 184.562C55.9167 184.833 56.4792 185.24 57 185.781H57.125L56.9063 183.375V178.094H61.5V200H57.75L57.4063 198.406H57.3125C56.7292 198.969 56.0625 199.437 55.3125 199.812C54.5625 200.188 53.7917 200.375 53 200.375ZM54.1875 196.625C54.7083 196.625 55.1875 196.521 55.625 196.312C56.0625 196.083 56.4896 195.708 56.9063 195.187V188.906C56.4896 188.531 56.0625 188.271 55.625 188.125C55.2083 187.958 54.7708 187.875 54.3125 187.875C53.4583 187.875 52.7188 188.229 52.0938 188.937C51.4896 189.646 51.1875 190.729 51.1875 192.188C51.1875 193.729 51.4479 194.854 51.9688 195.562C52.4896 196.271 53.2292 196.625 54.1875 196.625ZM72.9878 200.375C71.592 200.375 70.2274 200.146 68.894 199.687C67.5607 199.229 66.394 198.667 65.394 198L67.3628 195.125C68.3211 195.729 69.3211 196.187 70.3628 196.5C71.4045 196.812 72.4878 196.969 73.6128 196.969C74.467 196.969 75.092 196.844 75.4878 196.594C75.8836 196.344 76.0815 196.031 76.0815 195.656C76.0815 195.448 76.019 195.26 75.894 195.094C75.7899 194.927 75.592 194.781 75.3003 194.656C75.0295 194.51 74.644 194.375 74.144 194.25C73.644 194.125 73.019 193.979 72.269 193.812C70.1649 193.354 68.6545 192.74 67.7378 191.969C66.8211 191.177 66.3628 190.177 66.3628 188.969C66.3628 188.26 66.5295 187.604 66.8628 187C67.1961 186.396 67.6649 185.885 68.269 185.469C68.894 185.052 69.644 184.729 70.519 184.5C71.394 184.25 72.3836 184.125 73.4878 184.125C74.8836 184.125 76.144 184.354 77.269 184.812C78.4149 185.25 79.394 185.729 80.2065 186.25L78.144 189C77.3524 188.521 76.5295 188.156 75.6753 187.906C74.8211 187.656 73.9565 187.531 73.0815 187.531C72.3524 187.531 71.8107 187.646 71.4565 187.875C71.1024 188.104 70.9253 188.396 70.9253 188.75C70.9253 189.187 71.1961 189.5 71.7378 189.687C72.2795 189.875 73.2065 190.115 74.519 190.406C75.7065 190.677 76.6961 190.969 77.4878 191.281C78.2795 191.594 78.9045 191.948 79.3628 192.344C79.8211 192.74 80.144 193.187 80.3315 193.687C80.519 194.187 80.6128 194.75 80.6128 195.375C80.6128 196.083 80.4461 196.74 80.1128 197.344C79.7795 197.948 79.2899 198.479 78.644 198.937C78.019 199.375 77.2274 199.729 76.269 200C75.3315 200.25 74.2378 200.375 72.9878 200.375ZM90.4756 200.375C89.4964 200.375 88.6006 200.188 87.7881 199.812C86.9964 199.437 86.3089 198.906 85.7256 198.219C85.1631 197.51 84.7256 196.656 84.4131 195.656C84.1006 194.656 83.9443 193.521 83.9443 192.25C83.9443 190.979 84.1318 189.844 84.5068 188.844C84.8818 187.844 85.3714 187 85.9756 186.312C86.6006 185.604 87.3089 185.062 88.1006 184.687C88.8923 184.312 89.7152 184.125 90.5693 184.125C91.4443 184.125 92.1839 184.271 92.7881 184.562C93.3923 184.833 93.9548 185.24 94.4756 185.781H94.6006L94.3818 183.375V178.094H98.9756V200H95.2256L94.8818 198.406H94.7881C94.2048 198.969 93.5381 199.437 92.7881 199.812C92.0381 200.188 91.2673 200.375 90.4756 200.375ZM91.6631 196.625C92.1839 196.625 92.6631 196.521 93.1006 196.312C93.5381 196.083 93.9652 195.708 94.3818 195.187V188.906C93.9652 188.531 93.5381 188.271 93.1006 188.125C92.6839 187.958 92.2464 187.875 91.7881 187.875C90.9339 187.875 90.1943 188.229 89.5693 188.937C88.9652 189.646 88.6631 190.729 88.6631 192.188C88.6631 193.729 88.9235 194.854 89.4443 195.562C89.9652 196.271 90.7048 196.625 91.6631 196.625ZM108.213 200.375C107.422 200.375 106.713 200.25 106.088 200C105.463 199.771 104.932 199.448 104.495 199.031C104.057 198.594 103.713 198.094 103.463 197.531C103.234 196.969 103.12 196.354 103.12 195.687C103.12 194.812 103.307 194.052 103.682 193.406C104.057 192.74 104.651 192.177 105.463 191.719C106.297 191.26 107.359 190.896 108.651 190.625C109.943 190.333 111.505 190.135 113.338 190.031C113.255 189.323 112.943 188.771 112.401 188.375C111.88 187.979 111.088 187.781 110.026 187.781C109.276 187.781 108.515 187.917 107.745 188.187C106.995 188.437 106.182 188.781 105.307 189.219L103.682 186.219C104.745 185.615 105.88 185.115 107.088 184.719C108.318 184.323 109.599 184.125 110.932 184.125C113.099 184.125 114.807 184.698 116.057 185.844C117.307 186.99 117.932 188.75 117.932 191.125V200H114.182L113.838 198.25H113.713C112.922 198.854 112.057 199.365 111.12 199.781C110.182 200.177 109.213 200.375 108.213 200.375ZM109.682 196.812C110.37 196.812 111.015 196.677 111.62 196.406C112.224 196.115 112.797 195.76 113.338 195.344V192.781C112.193 192.844 111.245 192.948 110.495 193.094C109.745 193.24 109.151 193.427 108.713 193.656C108.276 193.865 107.963 194.115 107.776 194.406C107.609 194.698 107.526 195.01 107.526 195.344C107.526 195.844 107.713 196.219 108.088 196.469C108.484 196.698 109.015 196.812 109.682 196.812ZM129.201 200.375C127.805 200.375 126.441 200.146 125.107 199.687C123.774 199.229 122.607 198.667 121.607 198L123.576 195.125C124.535 195.729 125.535 196.187 126.576 196.5C127.618 196.812 128.701 196.969 129.826 196.969C130.68 196.969 131.305 196.844 131.701 196.594C132.097 196.344 132.295 196.031 132.295 195.656C132.295 195.448 132.232 195.26 132.107 195.094C132.003 194.927 131.805 194.781 131.514 194.656C131.243 194.51 130.857 194.375 130.357 194.25C129.857 194.125 129.232 193.979 128.482 193.812C126.378 193.354 124.868 192.74 123.951 191.969C123.035 191.177 122.576 190.177 122.576 188.969C122.576 188.26 122.743 187.604 123.076 187C123.41 186.396 123.878 185.885 124.482 185.469C125.107 185.052 125.857 184.729 126.732 184.5C127.607 184.25 128.597 184.125 129.701 184.125C131.097 184.125 132.357 184.354 133.482 184.812C134.628 185.25 135.607 185.729 136.42 186.25L134.357 189C133.566 188.521 132.743 188.156 131.889 187.906C131.035 187.656 130.17 187.531 129.295 187.531C128.566 187.531 128.024 187.646 127.67 187.875C127.316 188.104 127.139 188.396 127.139 188.75C127.139 189.187 127.41 189.5 127.951 189.687C128.493 189.875 129.42 190.115 130.732 190.406C131.92 190.677 132.91 190.969 133.701 191.281C134.493 191.594 135.118 191.948 135.576 192.344C136.035 192.74 136.357 193.187 136.545 193.687C136.732 194.187 136.826 194.75 136.826 195.375C136.826 196.083 136.66 196.74 136.326 197.344C135.993 197.948 135.503 198.479 134.857 198.937C134.232 199.375 133.441 199.729 132.482 200C131.545 200.25 130.451 200.375 129.201 200.375Z" fill="white"/>
<path d="M24 152H35.6508V163.696H24V152Z" fill="#FAE54E"/>
<path fill-rule="evenodd" clip-rule="evenodd" d="M28.7663 154.658H37.7692C39.0853 154.658 40.1523 155.729 40.1523 157.05V166.088C40.1523 167.409 39.0853 168.48 37.7692 168.48H28.7663C27.4501 168.48 26.3832 167.409 26.3832 166.088V157.05C26.3832 155.729 27.4501 154.658 28.7663 154.658ZM28.7663 156.785C28.6201 156.785 28.5015 156.904 28.5015 157.05V166.088C28.5015 166.235 28.6201 166.354 28.7663 166.354H37.7692C37.9154 166.354 38.034 166.235 38.034 166.088V157.05C38.034 156.904 37.9154 156.785 37.7692 156.785H28.7663Z" fill="#130B43"/>
<path d="M34.7816 215.188C34.7816 215.765 34.3156 216.233 33.7408 216.233C33.166 216.233 32.7001 215.765 32.7001 215.188C32.7001 214.611 33.166 214.143 33.7408 214.143C34.3156 214.143 34.7816 214.611 34.7816 215.188Z" fill="#130B43"/>
<path d="M34.7816 218.949C34.7816 219.526 34.3156 219.994 33.7408 219.994C33.166 219.994 32.7001 219.526 32.7001 218.949C32.7001 218.372 33.166 217.904 33.7408 217.904C34.3156 217.904 34.7816 218.372 34.7816 218.949Z" fill="#130B43"/>
<path d="M34.7816 222.71C34.7816 223.287 34.3156 223.755 33.7408 223.755C33.166 223.755 32.7001 223.287 32.7001 222.71C32.7001 222.133 33.166 221.666 33.7408 221.666C34.3156 221.666 34.7816 222.133 34.7816 222.71Z" fill="#130B43"/>
<path d="M38.5284 215.188C38.5284 215.765 38.0625 216.233 37.4877 216.233C36.9129 216.233 36.4469 215.765 36.4469 215.188C36.4469 214.611 36.9129 214.143 37.4877 214.143C38.0625 214.143 38.5284 214.611 38.5284 215.188Z" fill="#130B43"/>
<path d="M38.5284 218.949C38.5284 219.526 38.0625 219.994 37.4877 219.994C36.9129 219.994 36.4469 219.526 36.4469 218.949C36.4469 218.372 36.9129 217.904 37.4877 217.904C38.0625 217.904 38.5284 218.372 38.5284 218.949Z" fill="#130B43"/>
<path d="M38.5284 222.71C38.5284 223.287 38.0625 223.755 37.4877 223.755C36.9129 223.755 36.4469 223.287 36.4469 222.71C36.4469 222.133 36.9129 221.666 37.4877 221.666C38.0625 221.666 38.5284 222.133 38.5284 222.71Z" fill="#130B43"/>
<path d="M42.2753 215.188C42.2753 215.765 41.8093 216.233 41.2345 216.233C40.6597 216.233 40.1937 215.765 40.1937 215.188C40.1937 214.611 40.6597 214.143 41.2345 214.143C41.8093 214.143 42.2753 214.611 42.2753 215.188Z" fill="#130B43"/>
<path d="M42.2753 218.949C42.2753 219.526 41.8093 219.994 41.2345 219.994C40.6597 219.994 40.1937 219.526 40.1937 218.949C40.1937 218.372 40.6597 217.904 41.2345 217.904C41.8093 217.904 42.2753 218.372 42.2753 218.949Z" fill="#130B43"/>
<path d="M42.2753 222.71C42.2753 223.287 41.8093 223.755 41.2345 223.755C40.6597 223.755 40.1937 223.287 40.1937 222.71C40.1937 222.133 40.6597 221.666 41.2345 221.666C41.8093 221.666 42.2753 222.133 42.2753 222.71Z" fill="#130B43"/>
<path d="M130.41 231.154C130.571 231.145 130.678 231.318 130.599 231.459L125.145 241.144C125.069 241.279 124.877 241.283 124.795 241.152L119.187 232.142C119.105 232.011 119.193 231.839 119.347 231.83L130.41 231.154Z" fill="#E48900"/>
<path fill-rule="evenodd" clip-rule="evenodd" d="M123.17 234.836C123.019 234.85 122.935 235.018 123.015 235.148L128.261 243.575C128.342 243.704 128.53 243.703 128.608 243.572L134.225 234.19C134.31 234.047 134.198 233.867 134.033 233.881L123.17 234.836ZM135.619 235.031L130.002 244.413C129.298 245.589 127.606 245.603 126.882 244.44L121.636 236.013C120.912 234.85 121.667 233.33 123.028 233.21L133.891 232.255C135.38 232.124 136.389 233.744 135.619 235.031Z" fill="#130B43"/>
<path d="M425.36 39.6519L433.378 31.6783L441.396 39.6519L433.378 47.6255L425.36 39.6519Z" fill="#59D2AE"/>
<path fill-rule="evenodd" clip-rule="evenodd" d="M430.462 38.2022L436.658 32.0408C437.564 31.14 439.033 31.14 439.938 32.0408L446.134 38.2022C447.04 39.1029 447.04 40.5634 446.134 41.4641L439.938 47.6255C439.033 48.5263 437.564 48.5263 436.658 47.6255L430.462 41.4641C429.557 40.5634 429.557 39.1029 430.462 38.2022ZM431.92 39.6519C431.82 39.752 431.82 39.9143 431.92 40.0144L438.116 46.1758C438.217 46.2759 438.38 46.2759 438.481 46.1758L444.676 40.0144C444.777 39.9143 444.777 39.752 444.676 39.6519L438.481 33.4905C438.38 33.3904 438.217 33.3904 438.116 33.4905L431.92 39.6519Z" fill="#130B43"/>
<path d="M396.757 93.776C397.16 93.3756 397.812 93.3756 398.215 93.776L403.682 99.2125C404.084 99.6128 404.084 100.262 403.682 100.662V100.662C403.279 101.063 402.627 101.063 402.224 100.662L396.757 95.2257C396.354 94.8254 396.354 94.1763 396.757 93.776V93.776Z" fill="#130B43"/>
<path d="M394.437 98.389C394.84 97.9887 395.493 97.9887 395.895 98.389L401.362 103.826C401.765 104.226 401.765 104.875 401.362 105.275V105.275C400.96 105.676 400.307 105.676 399.904 105.275L394.437 99.8388C394.035 99.4384 394.035 98.7894 394.437 98.389V98.389Z" fill="#130B43"/>
<path d="M256.654 124.769C257.406 121.23 260.442 118.638 264.056 118.451L392.073 111.794C396.485 111.565 400.251 114.955 400.485 119.367L402.563 158.642C402.802 163.161 399.248 166.975 394.723 167.056L257.173 169.511C252.024 169.603 248.127 164.878 249.197 159.842L256.654 124.769Z" fill="#FFE000"/>
<path d="M245.293 103.929C245.574 99.5549 249.322 96.2175 253.7 96.4449L388.515 103.448C392.927 103.677 396.315 107.44 396.082 111.852L393.98 151.601C393.751 155.935 390.107 159.299 385.767 159.182L250.291 155.524C245.761 155.402 242.241 151.545 242.531 147.023L245.293 103.929Z" fill="#FFE000"/>
<path d="M94.8 150.672C92.8587 150.672 91.2907 150.056 90.096 148.824C88.9013 147.555 88.304 145.987 88.304 144.12C88.304 143.187 88.4533 142.328 88.752 141.544C89.088 140.723 89.536 140.013 90.096 139.416C90.656 138.819 91.328 138.352 92.112 138.016C92.9333 137.68 93.8293 137.512 94.8 137.512C95.7707 137.512 96.648 137.68 97.432 138.016C98.2533 138.352 98.944 138.819 99.504 139.416C100.064 140.013 100.493 140.723 100.792 141.544C101.128 142.328 101.296 143.187 101.296 144.12C101.296 145.987 100.699 147.555 99.504 148.824C98.3093 150.056 96.7413 150.672 94.8 150.672ZM127.146 150V128.664H116.002V122.224H135.378V150H127.146ZM130.898 117.856C129.293 117.856 127.967 117.408 126.922 116.512C125.914 115.616 125.41 114.403 125.41 112.872C125.41 111.341 125.914 110.109 126.922 109.176C127.967 108.205 129.293 107.72 130.898 107.72C132.503 107.72 133.81 108.205 134.818 109.176C135.863 110.109 136.386 111.341 136.386 112.872C136.386 114.403 135.863 115.616 134.818 116.512C133.81 117.408 132.503 117.856 130.898 117.856ZM161.956 150.672C160.127 150.672 158.354 150.355 156.636 149.72C154.956 149.048 153.444 148.096 152.1 146.864C150.794 145.632 149.748 144.12 148.964 142.328C148.18 140.499 147.788 138.427 147.788 136.112C147.788 133.797 148.18 131.744 148.964 129.952C149.748 128.123 150.794 126.592 152.1 125.36C153.444 124.128 154.956 123.195 156.636 122.56C158.354 121.888 160.127 121.552 161.956 121.552C163.786 121.552 165.54 121.888 167.22 122.56C168.938 123.195 170.45 124.128 171.756 125.36C173.1 126.592 174.164 128.123 174.948 129.952C175.732 131.744 176.124 133.797 176.124 136.112C176.124 138.427 175.732 140.499 174.948 142.328C174.164 144.12 173.1 145.632 171.756 146.864C170.45 148.096 168.938 149.048 167.22 149.72C165.54 150.355 163.786 150.672 161.956 150.672ZM161.956 144.008C163.86 144.008 165.279 143.299 166.212 141.88C167.183 140.461 167.668 138.539 167.668 136.112C167.668 133.685 167.183 131.763 166.212 130.344C165.279 128.925 163.86 128.216 161.956 128.216C160.052 128.216 158.615 128.925 157.644 130.344C156.711 131.763 156.244 133.685 156.244 136.112C156.244 138.539 156.711 140.461 157.644 141.88C158.615 143.299 160.052 144.008 161.956 144.008Z" fill="#130B43"/>
<path d="M203.75 130H226.25" stroke="#130B43" stroke-width="4" stroke-linecap="round" stroke-linejoin="round"/>
<path d="M215.75 140.5L226.25 130L215.75 119.5" stroke="#130B43" stroke-width="4" stroke-linecap="round" stroke-linejoin="round"/>
<path d="M267.8 150.672C265.859 150.672 264.291 150.056 263.096 148.824C261.901 147.555 261.304 145.987 261.304 144.12C261.304 143.187 261.453 142.328 261.752 141.544C262.088 140.723 262.536 140.013 263.096 139.416C263.656 138.819 264.328 138.352 265.112 138.016C265.933 137.68 266.829 137.512 267.8 137.512C268.771 137.512 269.648 137.68 270.432 138.016C271.253 138.352 271.944 138.819 272.504 139.416C273.064 140.013 273.493 140.723 273.792 141.544C274.128 142.328 274.296 143.187 274.296 144.12C274.296 145.987 273.699 147.555 272.504 148.824C271.309 150.056 269.741 150.672 267.8 150.672ZM301.378 150.672C299.549 150.672 297.775 150.355 296.058 149.72C294.378 149.048 292.866 148.096 291.522 146.864C290.215 145.632 289.17 144.12 288.386 142.328C287.602 140.499 287.21 138.427 287.21 136.112C287.21 133.797 287.602 131.744 288.386 129.952C289.17 128.123 290.215 126.592 291.522 125.36C292.866 124.128 294.378 123.195 296.058 122.56C297.775 121.888 299.549 121.552 301.378 121.552C303.207 121.552 304.962 121.888 306.642 122.56C308.359 123.195 309.871 124.128 311.178 125.36C312.522 126.592 313.586 128.123 314.37 129.952C315.154 131.744 315.546 133.797 315.546 136.112C315.546 138.427 315.154 140.499 314.37 142.328C313.586 144.12 312.522 145.632 311.178 146.864C309.871 148.096 308.359 149.048 306.642 149.72C304.962 150.355 303.207 150.672 301.378 150.672ZM301.378 144.008C303.282 144.008 304.701 143.299 305.634 141.88C306.605 140.461 307.09 138.539 307.09 136.112C307.09 133.685 306.605 131.763 305.634 130.344C304.701 128.925 303.282 128.216 301.378 128.216C299.474 128.216 298.037 128.925 297.066 130.344C296.133 131.763 295.666 133.685 295.666 136.112C295.666 138.539 296.133 140.461 297.066 141.88C298.037 143.299 299.474 144.008 301.378 144.008ZM324.652 150V122.224H331.372L332.044 128.272H332.212C333.594 125.995 335.255 124.315 337.196 123.232C339.138 122.112 341.228 121.552 343.468 121.552C344.7 121.552 345.69 121.645 346.436 121.832C347.22 122.019 348.023 122.299 348.844 122.672L347.164 129.56C346.306 129.299 345.522 129.112 344.812 129C344.14 128.851 343.282 128.776 342.236 128.776C340.519 128.776 338.82 129.28 337.14 130.288C335.498 131.296 334.079 133.051 332.884 135.552V150H324.652ZM367.246 161.816C365.454 161.816 363.774 161.667 362.206 161.368C360.676 161.107 359.35 160.677 358.23 160.08C357.11 159.52 356.233 158.792 355.598 157.896C354.964 157 354.646 155.936 354.646 154.704C354.646 152.427 356.084 150.579 358.958 149.16V148.936C358.174 148.451 357.502 147.835 356.942 147.088C356.42 146.341 356.158 145.371 356.158 144.176C356.158 143.243 356.457 142.309 357.054 141.376C357.689 140.443 358.492 139.64 359.462 138.968V138.744C358.454 138.072 357.596 137.139 356.886 135.944C356.177 134.712 355.822 133.275 355.822 131.632C355.822 129.952 356.14 128.496 356.774 127.264C357.446 125.995 358.324 124.949 359.406 124.128C360.489 123.269 361.74 122.635 363.158 122.224C364.614 121.776 366.126 121.552 367.694 121.552C369.412 121.552 370.942 121.776 372.286 122.224H383.542V128.272H377.942C378.241 128.683 378.521 129.224 378.782 129.896C379.044 130.531 379.174 131.203 379.174 131.912C379.174 133.517 378.876 134.899 378.278 136.056C377.681 137.213 376.86 138.184 375.814 138.968C374.806 139.715 373.593 140.275 372.174 140.648C370.793 141.021 369.3 141.208 367.694 141.208C366.5 141.208 365.23 141.021 363.886 140.648C363.476 140.947 363.158 141.245 362.934 141.544C362.748 141.843 362.654 142.235 362.654 142.72C362.654 143.467 363.028 144.008 363.774 144.344C364.521 144.643 365.716 144.792 367.358 144.792H372.51C376.169 144.792 378.95 145.333 380.854 146.416C382.796 147.499 383.766 149.291 383.766 151.792C383.766 153.248 383.374 154.592 382.59 155.824C381.806 157.056 380.705 158.101 379.286 158.96C377.868 159.856 376.132 160.547 374.078 161.032C372.025 161.555 369.748 161.816 367.246 161.816ZM367.694 136.224C368.852 136.224 369.841 135.851 370.662 135.104C371.484 134.32 371.894 133.163 371.894 131.632C371.894 130.176 371.484 129.056 370.662 128.272C369.841 127.488 368.852 127.096 367.694 127.096C366.537 127.096 365.548 127.488 364.726 128.272C363.942 129.056 363.55 130.176 363.55 131.632C363.55 133.163 363.942 134.32 364.726 135.104C365.548 135.851 366.537 136.224 367.694 136.224ZM368.422 156.608C370.662 156.608 372.473 156.291 373.854 155.656C375.236 155.021 375.926 154.219 375.926 153.248C375.926 152.352 375.516 151.773 374.694 151.512C373.873 151.251 372.66 151.12 371.054 151.12H367.582C366.574 151.12 365.734 151.083 365.062 151.008C364.428 150.971 363.849 150.877 363.326 150.728C362.617 151.176 362.113 151.605 361.814 152.016C361.516 152.464 361.366 152.949 361.366 153.472C361.366 154.517 361.982 155.301 363.214 155.824C364.484 156.347 366.22 156.608 368.422 156.608Z" fill="#130B43"/>
</svg>
